<?xml version="1.0" encoding="UTF-8" standalone="no"?>
<!-- Created with Inkscape (http://www.inkscape.org/) -->

<svg
   xmlns:dc="http://purl.org/dc/elements/1.1/"
   xmlns:cc="http://creativecommons.org/ns#"
   xmlns:rdf="http://www.w3.org/1999/02/22-rdf-syntax-ns#"
   xmlns:svg="http://www.w3.org/2000/svg"
   xmlns="http://www.w3.org/2000/svg"
   xmlns:sodipodi="http://sodipodi.sourceforge.net/DTD/sodipodi-0.dtd"
   xmlns:inkscape="http://www.inkscape.org/namespaces/inkscape"
   width="210mm"
   height="297mm"
   viewBox="0 0 210 297"
   version="1.1"
   id="svg8"
   inkscape:version="0.92.4 (5da689c313, 2019-01-14)"
   sodipodi:docname="icons.svg">
  <defs
     id="defs2" />
  <sodipodi:namedview
     id="base"
     pagecolor="#ffffff"
     bordercolor="#666666"
     borderopacity="1.0"
     inkscape:pageopacity="0.0"
     inkscape:pageshadow="2"
     inkscape:zoom="1.979899"
     inkscape:cx="349.37199"
     inkscape:cy="948.06745"
     inkscape:document-units="mm"
     inkscape:current-layer="layer1"
     showgrid="false"
     showguides="true"
     inkscape:guide-bbox="true"
     inkscape:window-width="1920"
     inkscape:window-height="1017"
     inkscape:window-x="1912"
     inkscape:window-y="-8"
     inkscape:window-maximized="1">
    <sodipodi:guide
       position="22.867559,278.21573"
       orientation="1,0"
       id="guide312"
       inkscape:locked="false" />
    <sodipodi:guide
       position="34.773809,292.55358"
       orientation="1,0"
       id="guide314"
       inkscape:locked="false" />
  </sodipodi:namedview>
  <metadata
     id="metadata5">
    <rdf:RDF>
      <cc:Work
         rdf:about="">
        <dc:format>image/svg+xml</dc:format>
        <dc:type
           rdf:resource="http://purl.org/dc/dcmitype/StillImage" />
        <dc:title></dc:title>
      </cc:Work>
    </rdf:RDF>
  </metadata>
  <g
     inkscape:label="Calque 1"
     inkscape:groupmode="layer"
     id="layer1">
    <path
       id="path30"
       d="m 25.347076,92.350986 c 0.31369,0 0.61127,0.069 0.87842,0.19254 l 1.66491,-1.66494 -0.62531,-0.62529 -0.59246,0.59245 -0.59243,-0.59245 0.24609,-0.24612 c -0.50054,-0.19563 -0.87603,-0.59327 -1.47129,-1.18853 -1.22701,-1.22701 -1.92852,-2.514841 -1.43775,-3.005621 0.4908,-0.4908 1.56917,0.001 2.79617,1.228281 0.59526,0.59526 1.20237,1.1802 1.39801,1.68076 l 0.24611,-0.24611 0.59243,0.59243 -0.59243,0.59245 0.62529,0.62532 1.66495,-1.66492 c -0.12359,-0.26715 -0.19254,-0.56473 -0.19254,-0.87842 0,-1.15681 0.93779,-2.094601 2.09463,-2.094601 0.27014,0 0.52834,0.0511 0.76544,0.14425 l -1.6033,1.603301 1.18488,1.18491 1.60333,-1.6033 c 0.0931,0.2371 0.14425,0.4953 0.14425,0.76544 0,1.15684 -0.93779,2.09463 -2.0946,2.09463 -0.22572,0 -0.44308,-0.0357 -0.64678,-0.10176 l -1.73535,1.73535 2.43822,2.43822 0.14808,-0.14812 1.44085,1.44082 -0.88869,0.88868 -1.44081,-1.44084 0.14811,-0.14809 -2.43821,-2.43821 -1.73535,1.73534 c 0.0661,0.20371 0.10176,0.42106 0.10176,0.64678 0,1.15681 -0.93779,2.0946 -2.09463,2.0946 -0.27014,0 -0.52835,-0.0511 -0.76544,-0.14425 l 1.6033,-1.60332 -1.18489,-1.18489 -1.60332,1.6033 c -0.0931,-0.23709 -0.14425,-0.4953 -0.14425,-0.76544 0,-1.15684 0.93779,-2.09463 2.0946,-2.09463 z"
       inkscape:connector-curvature="0"
       style="fill:#000000;fill-opacity:1;stroke-width:0.05291667;stroke-linejoin:round" />
    <path
       id="path91"
       d="m 31.06965,36.789763 c 0.36531,0 0.66146,0.29614 0.66146,0.66145 0,0.36531 -0.29615,0.66146 -0.66146,0.66146 l -0.16825,-0.0216 -0.61053,0.78142 c 0.4213,0.30316 0.78695,0.73255 1.07043,1.25167 -0.7229,0.23328 -1.5979,0.36975 -2.54061,0.36975 -0.94274,0 -1.81771,-0.13647 -2.54061,-0.36975 0.274,-0.50176 0.62479,-0.91969 1.02836,-1.22087 l -0.62503,-0.79999 c -0.0363,0.006 -0.0736,0.009 -0.11168,0.009 -0.36531,0 -0.66146,-0.29613 -0.66146,-0.66146 0,-0.36531 0.29615,-0.66146 0.66146,-0.66146 0.36531,0 0.66146,0.29615 0.66146,0.66146 0,0.13277 -0.0391,0.25641 -0.10647,0.36002 l 0.63614,0.8142 c 0.33089,-0.16074 0.68694,-0.24818 1.05783,-0.24818 0.35293,0 0.69241,0.0792 1.00954,0.22532 l 0.65593,-0.83952 c -0.0498,-0.0929 -0.078,-0.19908 -0.078,-0.31184 0,-0.36531 0.29615,-0.66146 0.66146,-0.66146 z m 2.11667,5.55625 c 0.21918,0 0.39687,0.17769 0.39687,0.39687 0,0.21918 -0.17769,0.39688 -0.39687,0.39688 h -1.20357 c -0.0188,0.28699 -0.0578,0.56597 -0.11507,0.83425 l 1.39957,0.65262 c 0.19865,0.0926 0.28459,0.32878 0.19196,0.52743 -0.0926,0.19864 -0.32875,0.28458 -0.5274,0.19195 l -1.28894,-0.60103 c -0.48959,1.3021 -1.4418,2.222 -2.5576,2.34858 v -6.07407 c 0.93689,-0.0256 1.79687,-0.18611 2.49341,-0.44087 l 0.0515,0.12893 1.35236,-0.51912 c 0.20463,-0.0786 0.43419,0.0237 0.51274,0.22829 0.0785,0.20463 -0.0237,0.43418 -0.22828,0.51273 l -1.40841,0.54065 c 0.0622,0.28099 0.10433,0.57402 0.12412,0.87591 z m -8.73126,0 h 1.20357 c 0.0198,-0.30189 0.0619,-0.59489 0.12411,-0.87591 l -1.4084,-0.54065 c -0.20463,-0.0786 -0.30684,-0.3081 -0.22831,-0.51273 0.0786,-0.20463 0.30814,-0.30684 0.51276,-0.22829 l 1.35234,0.51912 0.0516,-0.12893 c 0.69654,0.25476 1.55649,0.41529 2.49341,0.44087 v 6.07407 c -1.11583,-0.12658 -2.06804,-1.04648 -2.5576,-2.34858 l -1.28897,0.60106 c -0.19865,0.0926 -0.43476,0.007 -0.52739,-0.19198 -0.0926,-0.19865 -0.007,-0.43477 0.19195,-0.5274 l 1.3996,-0.65265 c -0.0573,-0.26826 -0.0963,-0.54726 -0.11507,-0.83425 h -1.20357 c -0.21918,0 -0.39687,-0.17767 -0.39687,-0.39688 0,-0.21918 0.17769,-0.39687 0.39687,-0.39687 z"
       inkscape:connector-curvature="0"
       style="fill:#000000;fill-opacity:1;stroke-width:0.26458332;stroke-linejoin:round" />
    <path
       id="path133"
       d="m 26.042561,9.693989 h 1.67568 v 7.540621 h -1.67568 z m 4.18923,0 h 1.67568 v 7.540621 h -1.67568 z"
       inkscape:connector-curvature="0"
       style="fill:#000000;fill-opacity:1;stroke-width:0.05291667;stroke-linejoin:round" />
    <path
       id="path154"
       d="m 26.571728,0.25720577 5.44597,4.08453003 v 0.31419 l -5.44597,3.9797298 z"
       inkscape:connector-curvature="0"
       style="fill:#000000;fill-opacity:1;stroke-width:0.05291667;stroke-linejoin:round" />
    <path
       id="path175"
       d="m 27.916687,18.784271 5.44597,4.08453 v 0.31419 l -5.44597,3.97973 z m -1.25677,0 v 8.37845 h -1.67569 v -8.37845 z"
       inkscape:connector-curvature="0"
       style="fill:#000000;fill-opacity:1;stroke-width:0.05291667;stroke-linejoin:round" />
    <rect
       id="rect196"
       height="7.5406251"
       width="7.5406251"
       y="28.117189"
       x="24.984228"
       style="fill:#000000;fill-opacity:1;stroke-width:0.05291667;stroke-linejoin:round" />
    <path
       id="path217"
       d="m 32.921734,48.518449 v 7.40833 h -1.32292 v -2.38125 c 0,-1.31511 -1.06611,-2.38125 -2.38125,-2.38125 h -0.26458 v -1.05833 l -1.78594,1.71979 1.78594,1.71979 v -1.05833 h 0.26458 c 0.58449,0 1.05833,0.47384 1.05833,1.05833 v 2.38125 h -4.7625 v -7.40833 z"
       inkscape:connector-curvature="0"
       style="fill:#000000;fill-opacity:1;stroke-width:0.05291667;stroke-linejoin:round" />
    <path
       id="path238"
       d="m 27.63006,57.193001 h 6.87917 v 1.32292 h -6.87917 z m 0.79375,2.116667 h 6.08542 v 1.32292 h -6.08542 z m 0,2.11667 h 6.08542 v 1.32291 h -6.08542 z m -0.79375,2.11666 h 6.87917 v 1.32292 h -6.87917 z m -3.175,-3.175 c 0,0.58452 0.47384,1.05834 1.05833,1.05834 h 0.52917 v -1.05831 l 1.78594,1.71976 -1.78594,1.7198 v -1.05834 h -0.52917 c -1.31514,0 -2.38125,-1.06614 -2.38125,-2.38125 v -0.79375 c 0,-1.315107 1.06611,-2.381247 2.38125,-2.381247 h 0.52917 v 1.32292 h -0.52917 c -0.58449,0 -1.05833,0.473837 -1.05833,1.058327 z"
       inkscape:connector-curvature="0"
       style="fill:#000000;fill-opacity:1;stroke-width:0.05291667;stroke-linejoin:round" />
    <path
       id="path259"
       d="m 27.894639,68.305502 h 6.87917 v 1.32291 h -6.87917 z m 0.79375,2.11666 h 6.08542 v 1.32292 h -6.08542 z m -0.79375,2.11667 h 6.87917 v 1.32292 h -6.87917 z m -2.64583,-0.79375 c -1.31514,0 -2.38125,-1.06611 -2.38125,-2.38125 0,-1.31511 1.06611,-2.38125 2.38125,-2.38125 h 0.79375 v -1.05833 l 1.78593,1.71979 -1.78593,1.71979 v -1.05833 h -0.79375 c -0.5845,0 -1.05834,0.47384 -1.05834,1.05833 0,0.58449 0.47384,1.05833 1.05834,1.05833 h 1.85208 v 1.32292 z"
       inkscape:connector-curvature="0"
       style="fill:#000000;fill-opacity:1;stroke-width:0.05291667;stroke-linejoin:round" />
    <path
       id="path301"
       d="m 25.777981,74.825641 0.26458,-8e-5 v 1.32297 l -0.26456,8e-5 c -0.73064,0 -1.32291,0.5923 -1.32291,1.32292 l -3e-5,3.70414 c 0,0.73062 0.5923,1.32292 1.32289,1.32292 h 0.26461 v -1.05839 l 1.78594,1.71979 -1.78594,1.71979 v -1.05833 h -0.26458 c -1.46127,0 -2.64584,-1.18457 -2.64584,-2.64583 v -3.70414 c 0,-1.46124 1.18457,-2.64584 2.64584,-2.64584 z m 1.85208,1.32289 h 6.87917 v 1.32292 h -6.87917 z m 0.79375,2.11667 h 6.08542 v 1.32292 h -6.08542 z m -0.79375,2.11667 h 6.87917 v 1.32291 h -6.87917 z"
       inkscape:connector-curvature="0"
       style="fill:#000000;fill-opacity:1;stroke-width:0.05291667;stroke-linejoin:round" />
  </g>
</svg>
