<?xml version="1.0" encoding="UTF-8" standalone="no"?>
<!-- Created with Inkscape (http://www.inkscape.org/) -->

<svg
   xmlns:osb="http://www.openswatchbook.org/uri/2009/osb"
   xmlns:dc="http://purl.org/dc/elements/1.1/"
   xmlns:cc="http://creativecommons.org/ns#"
   xmlns:rdf="http://www.w3.org/1999/02/22-rdf-syntax-ns#"
   xmlns:svg="http://www.w3.org/2000/svg"
   xmlns="http://www.w3.org/2000/svg"
   xmlns:sodipodi="http://sodipodi.sourceforge.net/DTD/sodipodi-0.dtd"
   xmlns:inkscape="http://www.inkscape.org/namespaces/inkscape"
   width="210mm"
   height="297mm"
   viewBox="0 0 210 297"
   version="1.1"
   id="svg8"
   inkscape:version="0.92.1 r15371"
   sodipodi:docname="icons.svg">
  <sodipodi:namedview
     id="base"
     pagecolor="#ffffff"
     bordercolor="#666666"
     borderopacity="1.0"
     inkscape:pageopacity="0"
     inkscape:pageshadow="2"
     inkscape:zoom="32"
     inkscape:cx="25.599185"
     inkscape:cy="25.759112"
     inkscape:document-units="mm"
     inkscape:current-layer="g4619"
     showgrid="true"
     showguides="true"
     inkscape:guide-bbox="true"
     inkscape:window-width="1920"
     inkscape:window-height="1017"
     inkscape:window-x="1672"
     inkscape:window-y="32"
     inkscape:window-maximized="1"
     inkscape:pagecheckerboard="true"
     inkscape:snap-global="true"
     inkscape:snap-bbox="false"
     inkscape:bbox-paths="true">
    <sodipodi:guide
       inkscape:locked="false"
       id="guide314"
       orientation="1,0"
       position="11.90625,9.7895834" />
    <inkscape:grid
       id="grid4501"
       type="xygrid" />
    <sodipodi:guide
       inkscape:locked="false"
       id="guide4513"
       orientation="0,1"
       position="7.4083334,11.90625" />
  </sodipodi:namedview>
  <defs
     id="defs2">
    <linearGradient
       osb:paint="solid"
       id="linearGradient4622">
      <stop
         id="stop4620"
         offset="0"
         style="stop-color:#a6a6a6;stop-opacity:1;" />
    </linearGradient>
    <inkscape:path-effect
       nr_y="10"
       nr_x="1"
       is_visible="true"
       id="path-effect4522"
       effect="construct_grid" />
  </defs>
  <metadata
     id="metadata5">
    <rdf:RDF>
      <cc:Work
         rdf:about="">
        <dc:format>image/svg+xml</dc:format>
        <dc:type
           rdf:resource="http://purl.org/dc/dcmitype/StillImage" />
        <dc:title />
      </cc:Work>
    </rdf:RDF>
  </metadata>
  <g
     id="layer1"
     inkscape:groupmode="layer"
     inkscape:label="Icons">
    <g
       style="display:none"
       inkscape:label="Stop"
       id="layer3"
       inkscape:groupmode="layer">
      <path
         inkscape:label="#path4507"
         inkscape:export-ydpi="303"
         inkscape:export-xdpi="303"
         sodipodi:nodetypes="ccccc"
         inkscape:connector-curvature="0"
         id="icon-stop"
         d="m 2.6458297,287.73958 v 6.61459 h 6.614587 v -6.61459 z"
         style="fill:#ffffff;fill-opacity:1;stroke:#000000;stroke-width:0.1;stroke-linecap:butt;stroke-linejoin:round;stroke-miterlimit:4;stroke-dasharray:none;stroke-opacity:1" />
    </g>
    <path
       inkscape:connector-curvature="0"
       id="path4505"
       d="m 32.93533,310.88712 c 0,-3.52721 0.01677,-5.64404 0.04465,-5.6342 0.02456,0.009 2.094168,1.28079 4.599133,2.82694 4.540858,2.80279 4.554116,2.81143 4.432006,2.88609 -0.06736,0.0412 -2.12603,1.31154 -4.574816,2.82301 -2.448785,1.51147 -4.46328,2.74813 -4.476655,2.74813 -0.01337,0 -0.02432,-2.54249 -0.02432,-5.64997 z"
       style="opacity:1;fill:none;fill-opacity:1;stroke:none;stroke-width:0.17857143;stroke-miterlimit:4;stroke-dasharray:none;stroke-opacity:1" />
    <g
       style="display:none"
       inkscape:label="Play"
       id="layer2"
       inkscape:groupmode="layer">
      <path
         inkscape:label="#path4499"
         inkscape:export-ydpi="303"
         inkscape:export-xdpi="303"
         sodipodi:nodetypes="cccc"
         inkscape:connector-curvature="0"
         id="icon-play"
         d="m 2.6458333,287.73958 v 6.61458 l 6.6145831,-3.30729 z"
         style="fill:#ffffff;fill-opacity:1;stroke:#000000;stroke-width:0.1;stroke-linecap:butt;stroke-linejoin:round;stroke-miterlimit:4;stroke-dasharray:none;stroke-opacity:1" />
    </g>
    <g
       style="display:none"
       inkscape:label="Pause"
       id="layer4"
       inkscape:groupmode="layer">
      <g
         inkscape:label="#g4527"
         transform="matrix(0.83333331,0,0,0.83333331,-9.4809027,299.31076)"
         inkscape:export-ydpi="303"
         inkscape:export-xdpi="303"
         style="fill:#ffffff;fill-opacity:1;stroke:#000000;stroke-width:0.12;stroke-linejoin:round;stroke-miterlimit:4;stroke-dasharray:none;stroke-opacity:1"
         id="icon-pause">
        <g
           style="fill:#ffffff;fill-opacity:1;stroke:#000000;stroke-width:0.12;stroke-linejoin:round;stroke-miterlimit:4;stroke-dasharray:none;stroke-opacity:1"
           id="g4515"
           transform="translate(-6.6145833,-33.072916)">
          <path
             inkscape:connector-curvature="0"
             id="path4509"
             d="M 21.166667,19.187499 H 23.8125 v 7.9375 h -2.645833 z"
             style="fill:#ffffff;fill-opacity:1;stroke:#000000;stroke-width:0.12;stroke-linecap:butt;stroke-linejoin:round;stroke-miterlimit:4;stroke-dasharray:none;stroke-opacity:1"
             sodipodi:nodetypes="ccccc" />
          <path
             inkscape:connector-curvature="0"
             id="path4511"
             d="m 29.104167,19.187499 h -2.645834 v 7.9375 h 2.645834 z"
             style="fill:#ffffff;fill-opacity:1;stroke:#000000;stroke-width:0.12;stroke-linecap:butt;stroke-linejoin:round;stroke-miterlimit:4;stroke-dasharray:none;stroke-opacity:1"
             sodipodi:nodetypes="ccccc" />
        </g>
      </g>
    </g>
    <g
       style="display:none"
       inkscape:label="Step into"
       id="layer5"
       inkscape:groupmode="layer">
      <g
         style="stroke:#000000;stroke-width:0.1;stroke-linejoin:round;stroke-miterlimit:4;stroke-dasharray:none;stroke-opacity:1"
         inkscape:export-ydpi="303"
         inkscape:export-xdpi="303"
         transform="translate(-52.122917,300.9718)"
         id="icon-step-into"
         inkscape:label="#g4615">
        <path
           style="opacity:1;fill:#ffffff;fill-opacity:1;stroke:#000000;stroke-width:0.1;stroke-linejoin:round;stroke-miterlimit:4;stroke-dasharray:none;stroke-opacity:1"
           id="path4517-9-4"
           sodipodi:type="arc"
           sodipodi:cx="58.074757"
           sodipodi:cy="-7.2804379"
           sodipodi:rx="1.9856726"
           sodipodi:ry="1.9845321"
           sodipodi:start="0"
           sodipodi:end="6.2795613"
           d="m 60.060429,-7.2804379 a 1.9856726,1.9845321 0 0 1 -1.983873,1.9845313 1.9856726,1.9845321 0 0 1 -1.987469,-1.9809354 1.9856726,1.9845321 0 0 1 1.980273,-1.9881207 1.9856726,1.9845321 0 0 1 1.991056,1.9773328"
           sodipodi:open="true" />
        <path
           sodipodi:nodetypes="cccccccc"
           inkscape:connector-curvature="0"
           id="path4530-8-2-0"
           d="m 57.414583,-14.555133 v 2.468442 h -1.322917 l 1.992643,2.2113019 1.976107,-2.2113019 h -1.322917 l 10e-7,-2.468442 z"
           style="fill:#ffffff;fill-opacity:1;stroke:#000000;stroke-width:0.1;stroke-linecap:butt;stroke-linejoin:round;stroke-miterlimit:4;stroke-dasharray:none;stroke-opacity:1" />
      </g>
    </g>
    <g
       style="display:none"
       inkscape:groupmode="layer"
       id="g4521"
       inkscape:label="Step over">
      <g
         style="stroke:#000000;stroke-width:0.1;stroke-linejoin:round;stroke-miterlimit:4;stroke-dasharray:none;stroke-opacity:1"
         transform="translate(-39.097206,300.28551)"
         inkscape:export-ydpi="303"
         inkscape:export-xdpi="303"
         inkscape:label="#g4649"
         id="icon-step-over">
        <path
           style="fill:#ffffff;fill-opacity:1;stroke:#000000;stroke-width:0.1;stroke-linecap:butt;stroke-linejoin:round;stroke-miterlimit:4;stroke-dasharray:none;stroke-opacity:1"
           d="m 40.48165,-11.316993 c 4.19768,-4.028144 7.850065,-0.740219 7.850065,-0.740219 l 0.706716,-0.791203 0.438248,2.8741365 -2.558397,-0.5005285 0.706717,-0.791203 c 0,0 -3.174999,-2.619407 -6.243846,0.956053 z"
           id="path4530-8-3"
           inkscape:connector-curvature="0"
           sodipodi:nodetypes="cccccccc" />
        <path
           style="opacity:1;fill:#ffffff;fill-opacity:1;stroke:#000000;stroke-width:0.1;stroke-linejoin:round;stroke-miterlimit:4;stroke-dasharray:none;stroke-opacity:1"
           id="path4517-9-6"
           sodipodi:type="arc"
           sodipodi:cx="45.051258"
           sodipodi:cy="-6.590487"
           sodipodi:rx="1.9867074"
           sodipodi:ry="1.9849746"
           sodipodi:start="0"
           sodipodi:end="6.2795613"
           d="m 47.037966,-6.590487 a 1.9867074,1.9849746 0 0 1 -1.984908,1.9849738 1.9867074,1.9849746 0 0 1 -1.988504,-1.981377 1.9867074,1.9849746 0 0 1 1.981304,-1.9885641 1.9867074,1.9849746 0 0 1 1.992094,1.9777738"
           sodipodi:open="true" />
      </g>
    </g>
    <g
       style="display:none"
       inkscape:label="Step out"
       id="g4523"
       inkscape:groupmode="layer">
      <g
         inkscape:export-ydpi="303"
         inkscape:export-xdpi="303"
         transform="translate(-52.122916,300.97909)"
         id="icon-step-into-4"
         inkscape:label="#g4615"
         style="display:inline;stroke:#000000;stroke-width:0.1;stroke-linejoin:round;stroke-miterlimit:4;stroke-dasharray:none;stroke-opacity:1">
        <path
           style="opacity:1;fill:#ffffff;fill-opacity:1;stroke:#000000;stroke-width:0.1;stroke-linejoin:round;stroke-miterlimit:4;stroke-dasharray:none;stroke-opacity:1"
           id="path4517-9-4-2"
           sodipodi:type="arc"
           sodipodi:cx="58.074757"
           sodipodi:cy="-7.2859168"
           sodipodi:rx="1.9856726"
           sodipodi:ry="1.9838099"
           sodipodi:start="0"
           sodipodi:end="6.2795613"
           d="m 60.060429,-7.2859168 a 1.9856726,1.9838099 0 0 1 -1.983873,1.9838091 1.9856726,1.9838099 0 0 1 -1.987469,-1.9802144 1.9856726,1.9838099 0 0 1 1.980273,-1.9873973 1.9856726,1.9838099 0 0 1 1.991056,1.9766133"
           sodipodi:open="true" />
        <path
           sodipodi:nodetypes="cccccccc"
           inkscape:connector-curvature="0"
           id="path4530-8-2-0-3"
           d="m 57.414583,-9.8753891 v -2.4684419 h -1.322917 l 1.992643,-2.211302 1.976107,2.211302 h -1.322917 l 10e-7,2.4684419 z"
           style="fill:#ffffff;fill-opacity:1;stroke:#000000;stroke-width:0.1;stroke-linecap:butt;stroke-linejoin:round;stroke-miterlimit:4;stroke-dasharray:none;stroke-opacity:1" />
      </g>
    </g>
    <g
       style="display:none"
       inkscape:groupmode="layer"
       id="g4525"
       inkscape:label="Config">
      <g
         id="g3027"
         transform="matrix(0.00596605,0,0,-0.00596061,1.3711723,294.86347)"
         style="fill:#ffffff;fill-opacity:1;stroke:#000000;stroke-width:16.61016273;stroke-linejoin:round;stroke-miterlimit:4;stroke-dasharray:none;stroke-opacity:1">
        <path
           style="fill:#ffffff;fill-opacity:1;stroke:#000000;stroke-width:16.61016273;stroke-linejoin:round;stroke-miterlimit:4;stroke-dasharray:none;stroke-opacity:1"
           inkscape:connector-curvature="0"
           id="path3029"
           d="m 1024,640 q 0,106 -75,181 -75,75 -181,75 -106,0 -181,-75 -75,-75 -75,-181 0,-106 75,-181 75,-75 181,-75 106,0 181,75 75,75 75,181 z m 512,109 V 527 q 0,-12 -8,-23 -8,-11 -20,-13 l -185,-28 q -19,-54 -39,-91 35,-50 107,-138 10,-12 10,-25 0,-13 -9,-23 -27,-37 -99,-108 -72,-71 -94,-71 -12,0 -26,9 l -138,108 q -44,-23 -91,-38 -16,-136 -29,-186 -7,-28 -36,-28 H 657 q -14,0 -24.5,8.5 Q 622,-111 621,-98 L 593,86 q -49,16 -90,37 L 362,16 Q 352,7 337,7 323,7 312,18 186,132 147,186 q -7,10 -7,23 0,12 8,23 15,21 51,66.5 36,45.5 54,70.5 -27,50 -41,99 L 29,495 Q 16,497 8,507.5 0,518 0,531 v 222 q 0,12 8,23 8,11 19,13 l 186,28 q 14,46 39,92 -40,57 -107,138 -10,12 -10,24 0,10 9,23 26,36 98.5,107.5 72.5,71.5 94.5,71.5 13,0 26,-10 l 138,-107 q 44,23 91,38 16,136 29,186 7,28 36,28 h 222 q 14,0 24.5,-8.5 Q 914,1391 915,1378 l 28,-184 q 49,-16 90,-37 l 142,107 q 9,9 24,9 13,0 25,-10 129,-119 165,-170 7,-8 7,-22 0,-12 -8,-23 -15,-21 -51,-66.5 -36,-45.5 -54,-70.5 26,-50 41,-98 l 183,-28 q 13,-2 21,-12.5 8,-10.5 8,-23.5 z" />
      </g>
    </g>
    <g
       inkscape:groupmode="layer"
       id="layer6"
       inkscape:label="File"
       style="display:none">
      <g
         id="icon-file"
         inkscape:label="#g4609">
        <rect
           ry="1.0082011"
           y="293.60986"
           x="1.3723301"
           height="2.0164022"
           width="9.1588678"
           id="rect4545-0"
           style="display:inline;opacity:1;fill:#ffffff;fill-opacity:1;stroke:#000000;stroke-width:0.09960802;stroke-linejoin:round;stroke-miterlimit:4;stroke-dasharray:none;stroke-opacity:1" />
        <rect
           ry="1.0082011"
           y="286.46628"
           x="1.3748562"
           height="2.0164022"
           width="9.1588678"
           id="rect4545-0-2"
           style="display:inline;opacity:1;fill:#ffffff;fill-opacity:1;stroke:#000000;stroke-width:0.09960802;stroke-linejoin:round;stroke-miterlimit:4;stroke-dasharray:none;stroke-opacity:1" />
        <rect
           ry="1.0082011"
           y="290.03806"
           x="1.3748561"
           height="2.0164022"
           width="9.1588678"
           id="rect4545-0-2-1"
           style="display:inline;opacity:1;fill:#ffffff;fill-opacity:1;stroke:#000000;stroke-width:0.09960802;stroke-linejoin:round;stroke-miterlimit:4;stroke-dasharray:none;stroke-opacity:1" />
      </g>
    </g>
    <g
       style="display:inline"
       inkscape:label="Debug"
       id="g4619"
       inkscape:groupmode="layer">
      <g
         id="icon-debug"
         inkscape:label="#g4682">
        <path
           id="rect4621"
           transform="scale(0.26458333)"
           d="m 18.810547,1082.5195 c -2.111028,0 -3.810547,1.6996 -3.810547,3.8106 v 27.3789 c 0,2.111 1.699519,3.8105 3.810547,3.8105 h 7.378906 C 28.300481,1117.5195 30,1115.82 30,1113.709 v -27.3789 c 0,-2.111 -1.699519,-3.8106 -3.810547,-3.8106 z"
           style="opacity:1;fill:#ffffff;fill-opacity:1;stroke:#000000;stroke-width:0.37795275;stroke-linejoin:round;stroke-miterlimit:4;stroke-dasharray:none;stroke-opacity:1"
           inkscape:connector-curvature="0"
           sodipodi:nodetypes="sssccssss" />
        <rect
           ry="0.66145831"
           y="287.73956"
           x="8.194746"
           height="1.3229166"
           width="2.3812499"
           id="rect4625"
           style="opacity:1;fill:#ffffff;fill-opacity:1;stroke:#000000;stroke-width:0.1;stroke-linejoin:round;stroke-miterlimit:4;stroke-dasharray:none;stroke-opacity:1" />
        <rect
           ry="0.66145831"
           y="290.38544"
           x="8.2020836"
           height="1.3229166"
           width="2.3812499"
           id="rect4625-9"
           style="display:inline;opacity:1;fill:#ffffff;fill-opacity:1;stroke:#000000;stroke-width:0.1;stroke-linejoin:round;stroke-miterlimit:4;stroke-dasharray:none;stroke-opacity:1" />
        <rect
           ry="0.66145831"
           y="293.03125"
           x="8.2020836"
           height="1.3229166"
           width="2.3812499"
           id="rect4625-5"
           style="display:inline;opacity:1;fill:#ffffff;fill-opacity:1;stroke:#000000;stroke-width:0.1;stroke-linejoin:round;stroke-miterlimit:4;stroke-dasharray:none;stroke-opacity:1" />
        <rect
           ry="0.66145831"
           y="287.789"
           x="1.3734555"
           height="1.3229166"
           width="2.3812499"
           id="rect4625-3"
           style="display:inline;opacity:1;fill:#ffffff;fill-opacity:1;stroke:#000000;stroke-width:0.1;stroke-linejoin:round;stroke-miterlimit:4;stroke-dasharray:none;stroke-opacity:1" />
        <rect
           ry="0.66145831"
           y="290.43488"
           x="1.3807931"
           height="1.3229166"
           width="2.3812499"
           id="rect4625-9-8"
           style="display:inline;opacity:1;fill:#ffffff;fill-opacity:1;stroke:#000000;stroke-width:0.1;stroke-linejoin:round;stroke-miterlimit:4;stroke-dasharray:none;stroke-opacity:1" />
        <rect
           ry="0.66145831"
           y="293.08069"
           x="1.3807931"
           height="1.3229166"
           width="2.3812499"
           id="rect4625-5-7"
           style="display:inline;opacity:1;fill:#ffffff;fill-opacity:1;stroke:#000000;stroke-width:0.1;stroke-linejoin:round;stroke-miterlimit:4;stroke-dasharray:none;stroke-opacity:1" />
      </g>
    </g>
  </g>
</svg>
